<svg xmlns="http://www.w3.org/2000/svg" width="29" height="29" viewBox="0 0 29 29" fill="none">
  <path d="M8.66341 26.5531C8.06351 26.5531 7.55211 26.3396 7.12919 25.9124C6.70627 25.4852 6.49482 24.9716 6.49482 24.3717C6.49482 23.7718 6.70841 23.2604 7.1356 22.8375C7.5628 22.4146 8.07634 22.2031 8.67622 22.2031C9.27612 22.2031 9.78752 22.4167 10.2104 22.8439C10.6334 23.2711 10.8448 23.7847 10.8448 24.3846C10.8448 24.9844 10.6312 25.4959 10.204 25.9188C9.77683 26.3417 9.26329 26.5531 8.66341 26.5531ZM20.7467 26.5531C20.1468 26.5531 19.6354 26.3396 19.2125 25.9124C18.7896 25.4852 18.5781 24.9716 18.5781 24.3717C18.5781 23.7718 18.7917 23.2604 19.2189 22.8375C19.6461 22.4146 20.1597 22.2031 20.7596 22.2031C21.3595 22.2031 21.8709 22.4167 22.2938 22.8439C22.7167 23.2711 22.9282 23.7847 22.9282 24.3846C22.9282 24.9844 22.7146 25.4959 22.2874 25.9188C21.8602 26.3417 21.3466 26.5531 20.7467 26.5531ZM7.09898 6.61565L10.4219 13.5031H19.1219L22.8979 6.61565H7.09898ZM6.19273 4.80315H23.9877C24.4501 4.80315 24.802 5.0146 25.0433 5.43752C25.2846 5.86044 25.2844 6.28335 25.0427 6.70627L20.9646 14.0469C20.7431 14.4295 20.4555 14.7367 20.1019 14.9683C19.7482 15.1998 19.3612 15.3156 18.9407 15.3156H9.78752L8.09586 18.4573H22.9282V20.2698H8.36773C7.5219 20.2698 6.9127 19.9879 6.54013 19.424C6.16756 18.8601 6.17259 18.2257 6.55523 17.5209L8.48857 13.9563L3.8969 4.22919H1.54065V2.41669H5.07502L6.19273 4.80315Z" fill="black"/>
</svg>