<svg xmlns="http://www.w3.org/2000/svg" width="36" height="36" viewBox="0 0 36 36" fill="none">
<path d="M17.4375 13.0125V8.39998H12.7875V6.14998H17.4375V1.53748H19.6875V6.14998H24.2999V8.39998H19.6875V13.0125H17.4375ZM10.867 33C10.1223 33 9.48745 32.7348 8.96245 32.2045C8.43745 31.6742 8.17495 31.0367 8.17495 30.292C8.17495 29.5473 8.4401 28.9125 8.9704 28.3875C9.50073 27.8625 10.1382 27.6 10.8829 27.6C11.6276 27.6 12.2625 27.8651 12.7875 28.3954C13.3125 28.9258 13.575 29.5633 13.575 30.3079C13.575 31.0526 13.3098 31.6875 12.7795 32.2125C12.2492 32.7375 11.6117 33 10.867 33ZM26.017 33C25.2723 33 24.6374 32.7348 24.1124 32.2045C23.5875 31.6742 23.3249 31.0367 23.3249 30.292C23.3249 29.5473 23.5901 28.9125 24.1204 28.3875C24.6507 27.8625 25.2882 27.6 26.0329 27.6C26.7776 27.6 27.4124 27.8651 27.9375 28.3954C28.4625 28.9258 28.7249 29.5633 28.7249 30.3079C28.7249 31.0526 28.4598 31.6875 27.9295 32.2125C27.3992 32.7375 26.7617 33 26.017 33ZM10.875 25.2375C9.82495 25.2375 9.0562 24.8125 8.5687 23.9625C8.0812 23.1125 8.08745 22.25 8.58745 21.375L10.875 17.2125L5.24995 5.24998H2.32495V2.99998H6.67495L13.05 16.65H24L29.8499 6.14998L31.7999 7.19998L26.0625 17.5875C25.8284 18.0042 25.5199 18.3271 25.1369 18.5562C24.7539 18.7854 24.2999 18.9 23.775 18.9H12.525L10.2 22.9875H28.7249V25.2375H10.875Z" fill="white"/>
</svg>