<svg xmlns="http://www.w3.org/2000/svg" width="109" height="16" viewBox="0 0 109 16" fill="none">
  <path d="M0 15.788V0.173494H6.30373V2.13976H2.80166V6.68916H5.66011V8.6747H2.80166V15.788H0Z" fill="black"/>
  <path d="M6.59996 15.788L9.66664 0.173494H12.6576L15.7243 15.788H13.1309L12.5251 12.1831H9.85594L9.23125 15.788H6.59996ZM10.1399 10.3711H12.2222L11.1811 3.81687L10.1399 10.3711Z" fill="black"/>
  <path d="M21.0542 16C20.1329 16 19.3631 15.8201 18.7447 15.4602C18.1263 15.0875 17.6593 14.5478 17.3438 13.841C17.0283 13.1341 16.8517 12.2667 16.8138 11.2386L19.2179 10.7566C19.2432 11.3606 19.3126 11.894 19.4262 12.3566C19.5524 12.8193 19.7354 13.1791 19.9751 13.4361C20.2275 13.6803 20.5557 13.8024 20.9595 13.8024C21.4138 13.8024 21.7356 13.6675 21.9249 13.3976C22.1142 13.1149 22.2089 12.7614 22.2089 12.3373C22.2089 11.6562 22.0574 11.0972 21.7546 10.6602C21.4517 10.2233 21.0478 9.78635 20.543 9.3494L18.6122 7.61446C18.0695 7.13896 17.6341 6.61205 17.306 6.03373C16.9905 5.44257 16.8327 4.71647 16.8327 3.85542C16.8327 2.62169 17.1861 1.67068 17.8928 1.00241C18.5995 0.334137 19.565 0 20.7891 0C21.5085 0 22.1079 0.115663 22.5875 0.346988C23.0671 0.565462 23.4457 0.873896 23.7233 1.27229C24.0136 1.67068 24.2281 2.12691 24.3669 2.64096C24.5057 3.14217 24.5941 3.6755 24.6319 4.24096L22.2467 4.66506C22.2215 4.17671 22.1647 3.73976 22.0764 3.35422C22.0007 2.96868 21.8555 2.66667 21.641 2.44819C21.4391 2.22972 21.1362 2.12048 20.7323 2.12048C20.3159 2.12048 19.9941 2.26185 19.7669 2.54458C19.5524 2.81446 19.4451 3.15502 19.4451 3.56627C19.4451 4.09317 19.5524 4.53012 19.7669 4.87711C19.9814 5.21125 20.2906 5.55823 20.6945 5.91807L22.6064 7.63374C23.2374 8.17349 23.7738 8.80964 24.2155 9.54217C24.6698 10.2618 24.897 11.1357 24.897 12.1639C24.897 12.9092 24.7329 13.5711 24.4048 14.1494C24.0893 14.7277 23.6413 15.1839 23.0607 15.5181C22.4928 15.8394 21.824 16 21.0542 16Z" fill="black"/>
  <path d="M26.5844 15.788V0.173494H29.3671V6.70843H32.4906V0.173494H35.2923V15.788H32.4906V8.73253H29.3671V15.788H26.5844Z" fill="black"/>
  <path d="M37.7141 15.788V0.173494H40.4779V15.788H37.7141Z" fill="black"/>
  <path d="M47.0162 16C45.9309 16 45.0664 15.7944 44.4228 15.3831C43.7792 14.9719 43.3186 14.3807 43.0409 13.6096C42.7633 12.8386 42.6244 11.9261 42.6244 10.8723V5.03133C42.6244 3.97751 42.7633 3.07791 43.0409 2.33253C43.3186 1.5743 43.7792 0.995984 44.4228 0.597591C45.0664 0.199197 45.9309 0 47.0162 0C48.1268 0 48.9976 0.199197 49.6286 0.597591C50.2722 0.995984 50.7329 1.5743 51.0105 2.33253C51.3008 3.07791 51.4459 3.97751 51.4459 5.03133V10.8916C51.4459 11.9325 51.3008 12.8386 51.0105 13.6096C50.7329 14.3679 50.2722 14.959 49.6286 15.3831C48.9976 15.7944 48.1268 16 47.0162 16ZM47.0162 13.8988C47.4832 13.8988 47.8239 13.796 48.0385 13.5904C48.2656 13.3847 48.4171 13.102 48.4928 12.7422C48.5685 12.3823 48.6064 11.9904 48.6064 11.5663V4.3759C48.6064 3.93896 48.5685 3.54699 48.4928 3.2C48.4171 2.85301 48.2656 2.58313 48.0385 2.39036C47.8239 2.18474 47.4832 2.08193 47.0162 2.08193C46.5745 2.08193 46.2401 2.18474 46.0129 2.39036C45.7858 2.58313 45.6343 2.85301 45.5586 3.2C45.4829 3.54699 45.445 3.93896 45.445 4.3759V11.5663C45.445 11.9904 45.4766 12.3823 45.5397 12.7422C45.6154 13.102 45.7668 13.3847 45.994 13.5904C46.2212 13.796 46.5619 13.8988 47.0162 13.8988Z" fill="black"/>
  <path d="M53.5183 15.788V0.173494H55.4681L59.1973 9.07952V0.173494H61.5068V15.788H59.6517L55.9035 6.45783V15.788H53.5183Z" fill="black"/>
  <path d="M67.6955 16C66.7742 16 66.0044 15.8201 65.386 15.4602C64.7676 15.0875 64.3007 14.5478 63.9852 13.841C63.6697 13.1341 63.493 12.2667 63.4551 11.2386L65.8593 10.7566C65.8845 11.3606 65.9539 11.894 66.0675 12.3566C66.1937 12.8193 66.3767 13.1791 66.6165 13.4361C66.8689 13.6803 67.197 13.8024 67.6008 13.8024C68.0552 13.8024 68.377 13.6675 68.5663 13.3976C68.7556 13.1149 68.8502 12.7614 68.8502 12.3373C68.8502 11.6562 68.6988 11.0972 68.3959 10.6602C68.093 10.2233 67.6892 9.78635 67.1844 9.3494L65.2535 7.61446C64.7108 7.13896 64.2754 6.61205 63.9473 6.03373C63.6318 5.44257 63.4741 4.71647 63.4741 3.85542C63.4741 2.62169 63.8274 1.67068 64.5342 1.00241C65.2409 0.334137 66.2063 0 67.4305 0C68.1498 0 68.7493 0.115663 69.2288 0.346988C69.7084 0.565462 70.087 0.873896 70.3646 1.27229C70.6549 1.67068 70.8694 2.12691 71.0083 2.64096C71.1471 3.14217 71.2354 3.6755 71.2733 4.24096L68.8881 4.66506C68.8628 4.17671 68.8061 3.73976 68.7177 3.35422C68.642 2.96868 68.4969 2.66667 68.2823 2.44819C68.0804 2.22972 67.7775 2.12048 67.3737 2.12048C66.9572 2.12048 66.6354 2.26185 66.4082 2.54458C66.1937 2.81446 66.0864 3.15502 66.0864 3.56627C66.0864 4.09317 66.1937 4.53012 66.4082 4.87711C66.6228 5.21125 66.932 5.55823 67.3358 5.91807L69.2478 7.63374C69.8788 8.17349 70.4151 8.80964 70.8568 9.54217C71.3111 10.2618 71.5383 11.1357 71.5383 12.1639C71.5383 12.9092 71.3742 13.5711 71.0461 14.1494C70.7306 14.7277 70.2826 15.1839 69.7021 15.5181C69.1342 15.8394 68.4653 16 67.6955 16Z" fill="black"/>
  <path d="M74.7212 15.788V2.2747H72.2792V0.173494H79.927V2.2747H77.5229V15.788H74.7212Z" fill="black"/>
  <path d="M85.4126 16C84.3273 16 83.4628 15.7944 82.8192 15.3831C82.1756 14.9719 81.7149 14.3807 81.4373 13.6096C81.1596 12.8386 81.0208 11.9261 81.0208 10.8723V5.03133C81.0208 3.97751 81.1596 3.07791 81.4373 2.33253C81.7149 1.5743 82.1756 0.995984 82.8192 0.597591C83.4628 0.199197 84.3273 0 85.4126 0C86.5232 0 87.394 0.199197 88.025 0.597591C88.6686 0.995984 89.1292 1.5743 89.4069 2.33253C89.6971 3.07791 89.8423 3.97751 89.8423 5.03133V10.8916C89.8423 11.9325 89.6971 12.8386 89.4069 13.6096C89.1292 14.3679 88.6686 14.959 88.025 15.3831C87.394 15.7944 86.5232 16 85.4126 16ZM85.4126 13.8988C85.8796 13.8988 86.2203 13.796 86.4348 13.5904C86.662 13.3847 86.8134 13.102 86.8892 12.7422C86.9649 12.3823 87.0027 11.9904 87.0027 11.5663V4.3759C87.0027 3.93896 86.9649 3.54699 86.8892 3.2C86.8134 2.85301 86.662 2.58313 86.4348 2.39036C86.2203 2.18474 85.8796 2.08193 85.4126 2.08193C84.9709 2.08193 84.6365 2.18474 84.4093 2.39036C84.1822 2.58313 84.0307 2.85301 83.955 3.2C83.8793 3.54699 83.8414 3.93896 83.8414 4.3759V11.5663C83.8414 11.9904 83.873 12.3823 83.9361 12.7422C84.0118 13.102 84.1632 13.3847 84.3904 13.5904C84.6175 13.796 84.9583 13.8988 85.4126 13.8988Z" fill="black"/>
  <path d="M91.9147 15.788V0.173494H95.5871C96.622 0.173494 97.4928 0.302008 98.1995 0.559037C98.9188 0.803214 99.4615 1.22731 99.8275 1.83133C100.206 2.43534 100.395 3.25783 100.395 4.2988C100.395 4.92851 100.339 5.49398 100.225 5.99518C100.111 6.49639 99.9158 6.92691 99.6382 7.28675C99.3731 7.63374 99.0009 7.90361 98.5213 8.09639L100.66 15.788H97.8587L96.0036 8.63614H94.7163V15.788H91.9147ZM94.7163 6.84337H95.5871C96.1298 6.84337 96.5589 6.76627 96.8744 6.61205C97.2025 6.44498 97.436 6.18795 97.5748 5.84096C97.7136 5.48112 97.783 5.0249 97.783 4.47229C97.783 3.68835 97.6379 3.10362 97.3476 2.71807C97.07 2.31968 96.5336 2.12048 95.7386 2.12048H94.7163V6.84337Z" fill="black"/>
  <path d="M102.526 15.788V0.173494H108.962V2.17831H105.328V6.66988H108.186V8.65542H105.328V13.8217H109V15.788H102.526Z" fill="black"/>
</svg>